<?xml version="1.0" encoding="UTF-8"?>
<svg version="1.1" xmlns="http://www.w3.org/2000/svg" width="680" height="680">
<path d="M0 0 C1.01882263 0.00270905 2.03764526 0.00541809 3.08734131 0.00820923 C19.29350307 0.07329485 34.85909303 1.03389204 50.75 4.4375 C51.67232422 4.62473633 52.59464844 4.81197266 53.54492188 5.00488281 C95.89451531 13.70623647 132.30310882 33.59438258 165.75 60.4375 C166.08773438 59.86 166.42546875 59.2825 166.7734375 58.6875 C167.21945312 57.945 167.66546875 57.2025 168.125 56.4375 C168.78628906 55.32375 168.78628906 55.32375 169.4609375 54.1875 C169.88632812 53.61 170.31171875 53.0325 170.75 52.4375 C171.41 52.4375 172.07 52.4375 172.75 52.4375 C172.99363281 51.87675781 173.23726563 51.31601563 173.48828125 50.73828125 C176.06366311 46.04199668 180.11588777 42.33162359 183.75 38.4375 C184.58724609 37.50164062 184.58724609 37.50164062 185.44140625 36.546875 C203.52660187 17.14721654 232.00384254 7.66068843 257.84765625 6.15234375 C288.11409699 5.45551879 317.30472661 16.64592733 339.25097656 37.46972656 C350.52508313 48.5493472 358.21060419 61.13578314 364.75 75.4375 C365.04084473 76.0651123 365.33168945 76.69272461 365.63134766 77.33935547 C379.97875128 108.74014026 386.8478994 143.33674878 390.75 177.4375 C390.87931664 178.54384796 390.87931664 178.54384796 391.01124573 179.67254639 C391.69856115 185.93924354 391.93869265 192.1436037 391.98828125 198.4453125 C391.99802979 199.47684448 392.00777832 200.50837646 392.01782227 201.57116699 C392.19254296 224.86929784 391.81455332 247.44891298 387.75 270.4375 C387.55744629 271.56172363 387.36489258 272.68594727 387.16650391 273.84423828 C382.00430967 303.4071802 372.57275927 331.3433122 359.75 358.4375 C359.43095703 359.12473145 359.11191406 359.81196289 358.78320312 360.52001953 C348.37622566 382.86861859 334.33170054 403.29959036 318.14746094 421.83520508 C317.15026373 422.97856729 316.15940584 424.12747123 315.17285156 425.2800293 C304.78881208 437.33176337 293.41076074 448.78626435 280.75 458.4375 C279.52485516 459.41257356 278.30099644 460.38926431 277.078125 461.3671875 C253.45279163 480.07758486 227.08556387 495.19593602 198.81347656 505.67236328 C196.939494 506.36723566 195.07462678 507.08656843 193.2109375 507.80859375 C189.04709414 509.3961277 186.25863607 510.4375 181.75 510.4375 C181.42 511.0975 181.09 511.7575 180.75 512.4375 C178.34756935 513.17149037 176.01032307 513.77190012 173.5625 514.3125 C172.81436035 514.48249512 172.0662207 514.65249023 171.29541016 514.82763672 C165.09736473 516.20483963 158.86869054 517.41201646 152.625 518.5625 C151.7688208 518.72089355 150.9126416 518.87928711 150.03051758 519.04248047 C147.27436417 519.53560244 144.51409494 519.99107016 141.75 520.4375 C140.69361328 520.61845215 139.63722656 520.7994043 138.54882812 520.98583984 C126.88618032 522.79015807 115.27870981 522.83409722 103.5 522.8125 C102.43752045 522.81228851 101.37504089 522.81207703 100.28036499 522.81185913 C83.76649471 522.77906484 67.94077971 521.93445924 51.75 518.4375 C50.81317383 518.24494629 49.87634766 518.05239258 48.91113281 517.85400391 C36.55796189 515.28418368 24.6137417 511.7143604 12.75 507.4375 C10.91308594 506.78974609 10.91308594 506.78974609 9.0390625 506.12890625 C-15.51232651 496.82736695 -38.61635889 483.1330662 -58.375 465.875 C-61.05604196 463.29532237 -61.05604196 463.29532237 -64.25 462.4375 C-64.50007812 462.98535156 -64.75015625 463.53320312 -65.0078125 464.09765625 C-66.48925148 466.88816552 -68.25385613 469.32953824 -70.125 471.875 C-70.80304688 472.80183594 -71.48109375 473.72867187 -72.1796875 474.68359375 C-72.86289063 475.59238281 -73.54609375 476.50117187 -74.25 477.4375 C-74.95382813 478.37722656 -75.65765625 479.31695313 -76.3828125 480.28515625 C-76.99898437 480.99542969 -77.61515625 481.70570313 -78.25 482.4375 C-78.91 482.4375 -79.57 482.4375 -80.25 482.4375 C-80.58 483.4275 -80.91 484.4175 -81.25 485.4375 C-91.34218047 495.19654053 -104.20183135 503.37403157 -117.25 508.4375 C-118.35472656 508.86804688 -119.45945313 509.29859375 -120.59765625 509.7421875 C-144.36891157 518.33543274 -174.05638416 520.07773334 -197.89453125 510.359375 C-198.60996094 509.97265625 -199.32539063 509.5859375 -200.0625 509.1875 C-202.71071647 507.7797424 -205.33942524 506.39583455 -208.05859375 505.12890625 C-226.46213005 496.50148485 -242.27768825 482.59059718 -253.25 465.4375 C-253.25 464.7775 -253.25 464.1175 -253.25 463.4375 C-253.91 463.1075 -254.57 462.7775 -255.25 462.4375 C-257.13638334 459.22071999 -258.65821813 455.8080639 -260.25 452.4375 C-260.90935547 451.05498047 -260.90935547 451.05498047 -261.58203125 449.64453125 C-263.85570186 444.77434254 -265.89095401 439.93856459 -267.4765625 434.80078125 C-268.13326349 432.79419489 -268.87256843 430.81494205 -269.62890625 428.84375 C-283.36384588 392.42930728 -289.00759416 353.52236483 -288.82641602 314.8034668 C-288.81270862 311.77632138 -288.81954781 308.75044039 -288.84692383 305.72338867 C-289.42574482 241.43274574 -271.04102757 175.9974349 -233.25 123.4375 C-232.53046143 122.43614014 -232.53046143 122.43614014 -231.79638672 121.41455078 C-226.28984326 113.80875932 -220.64214024 106.4558079 -214.23828125 99.57421875 C-212.47160891 97.67565339 -210.79509377 95.7329721 -209.125 93.75 C-200.06182787 83.38004491 -190.11139551 73.89086519 -179.25 65.4375 C-178.49074219 64.81101562 -177.73148437 64.18453125 -176.94921875 63.5390625 C-163.98981665 52.86661371 -150.10880659 43.79664433 -135.44580078 35.65869141 C-133.47430011 34.56224418 -131.51558714 33.44625691 -129.55859375 32.32421875 C-90.49209577 10.29313273 -44.61667759 -0.28106077 0 0 Z " fill="#26A949" transform="translate(288.25,78.5625)"/>
<path d="M0 0 C1.01882263 0.00270905 2.03764526 0.00541809 3.08734131 0.00820923 C19.29350307 0.07329485 34.85909303 1.03389204 50.75 4.4375 C51.67232422 4.62473633 52.59464844 4.81197266 53.54492188 5.00488281 C95.89451531 13.70623647 132.30310882 33.59438258 165.75 60.4375 C165.15861433 64.30685194 164.00769222 67.15305664 162.08203125 70.55078125 C161.52596191 71.53860596 160.96989258 72.52643066 160.39697266 73.54418945 C159.79159668 74.60210693 159.1862207 75.66002441 158.5625 76.75 C157.9339209 77.86012451 157.3053418 78.97024902 156.65771484 80.11401367 C151.89002885 88.50887338 147.03941096 96.85532153 142.15478516 105.18261719 C137.52072947 113.08723935 132.97035013 121.0371471 128.4375 129 C122.99710984 138.55499402 117.49136433 148.05993826 111.75 157.4375 C107.80504804 156.18044482 104.06464486 154.74809652 100.3125 153 C97.32580438 151.61905471 94.34881939 150.26973356 91.3125 149 C87.75 147.4375 87.75 147.4375 85.5 146.203125 C55.37512006 129.91467248 14.18113177 122.97912797 -19.25 132.4375 C-20.05904785 132.66324707 -20.8680957 132.88899414 -21.70166016 133.12158203 C-62.87001319 144.97458288 -92.47857119 173.41961109 -113.19042969 210.20019531 C-138.0801311 256.10093675 -141.62044112 310.69067168 -127.25 360.4375 C-117.6374577 392.06269873 -100.55578687 420.25333108 -78.25 444.4375 C-76.68715658 446.20803026 -75.12465437 447.97886176 -73.5625 449.75 C-71.06916304 452.53641341 -68.60685904 455.10064218 -65.6875 457.4375 C-64.883125 458.0975 -64.07875 458.7575 -63.25 459.4375 C-63.25 460.0975 -63.25 460.7575 -63.25 461.4375 C-63.91 461.4375 -64.57 461.4375 -65.25 461.4375 C-65.37955078 462.50484375 -65.37955078 462.50484375 -65.51171875 463.59375 C-66.40734837 467.04358263 -67.91589176 469.10190618 -70.0625 471.9375 C-70.74957031 472.8553125 -71.43664062 473.773125 -72.14453125 474.71875 C-72.83933594 475.6159375 -73.53414062 476.513125 -74.25 477.4375 C-74.95511719 478.3759375 -75.66023437 479.314375 -76.38671875 480.28125 C-77.00160156 480.9928125 -77.61648437 481.704375 -78.25 482.4375 C-78.91 482.4375 -79.57 482.4375 -80.25 482.4375 C-80.58 483.4275 -80.91 484.4175 -81.25 485.4375 C-91.34218047 495.19654053 -104.20183135 503.37403157 -117.25 508.4375 C-118.35472656 508.86804688 -119.45945313 509.29859375 -120.59765625 509.7421875 C-144.36891157 518.33543274 -174.05638416 520.07773334 -197.89453125 510.359375 C-198.60996094 509.97265625 -199.32539063 509.5859375 -200.0625 509.1875 C-202.71071647 507.7797424 -205.33942524 506.39583455 -208.05859375 505.12890625 C-226.46213005 496.50148485 -242.27768825 482.59059718 -253.25 465.4375 C-253.25 464.7775 -253.25 464.1175 -253.25 463.4375 C-253.91 463.1075 -254.57 462.7775 -255.25 462.4375 C-257.13638334 459.22071999 -258.65821813 455.8080639 -260.25 452.4375 C-260.90935547 451.05498047 -260.90935547 451.05498047 -261.58203125 449.64453125 C-263.85570186 444.77434254 -265.89095401 439.93856459 -267.4765625 434.80078125 C-268.13326349 432.79419489 -268.87256843 430.81494205 -269.62890625 428.84375 C-283.36384588 392.42930728 -289.00759416 353.52236483 -288.82641602 314.8034668 C-288.81270862 311.77632138 -288.81954781 308.75044039 -288.84692383 305.72338867 C-289.42574482 241.43274574 -271.04102757 175.9974349 -233.25 123.4375 C-232.53046143 122.43614014 -232.53046143 122.43614014 -231.79638672 121.41455078 C-226.28984326 113.80875932 -220.64214024 106.4558079 -214.23828125 99.57421875 C-212.47160891 97.67565339 -210.79509377 95.7329721 -209.125 93.75 C-200.06182787 83.38004491 -190.11139551 73.89086519 -179.25 65.4375 C-178.49074219 64.81101562 -177.73148437 64.18453125 -176.94921875 63.5390625 C-163.98981665 52.86661371 -150.10880659 43.79664433 -135.44580078 35.65869141 C-133.47430011 34.56224418 -131.51558714 33.44625691 -129.55859375 32.32421875 C-90.49209577 10.29313273 -44.61667759 -0.28106077 0 0 Z " fill="#0B6C3E" transform="translate(288.25,78.5625)"/>
<path d="M0 0 C4.19612081 2.26651781 7.43359031 5.12157615 10.75 8.5 C11.27513184 9.03117432 11.80026367 9.56234863 12.34130859 10.10961914 C17.24429956 15.13574458 21.68091287 20.46545295 26 26 C26.80050781 26.99515625 27.60101563 27.9903125 28.42578125 29.015625 C34.99171364 37.25157965 40.67840061 45.91539263 46 55 C46.57814453 55.98129883 46.57814453 55.98129883 47.16796875 56.98242188 C72.68491639 100.91859965 80.3580633 156.42326339 67.69238281 205.59765625 C64.4362737 217.49456102 60.31823993 228.87421355 55 240 C54.62504395 240.78568359 54.25008789 241.57136719 53.86376953 242.38085938 C45.51984354 259.57608878 34.76683291 274.81246769 22 289 C21.29875 289.78503906 20.5975 290.57007813 19.875 291.37890625 C1.76903493 310.54791093 -28.49183484 329.1475061 -55.5546875 330.12890625 C-56.36164063 330.08636719 -57.16859375 330.04382813 -58 330 C-58.33 330.66 -58.66 331.32 -59 332 C-59.66 331.67 -60.32 331.34 -61 331 C-61.33 331.66 -61.66 332.32 -62 333 C-62 332.34 -62 331.68 -62 331 C-64.97 331 -67.94 331 -71 331 C-71.33 331.66 -71.66 332.32 -72 333 C-74.64 333 -77.28 333 -80 333 C-80 332.34 -80 331.68 -80 331 C-80.75539063 331.04640625 -81.51078125 331.0928125 -82.2890625 331.140625 C-94.94459761 331.55556058 -107.92427175 329.52774422 -120.03515625 325.8046875 C-122.9017041 324.67340199 -122.9017041 324.67340199 -125 326 C-125.350625 325.525625 -125.70125 325.05125 -126.0625 324.5625 C-128.87553605 322.29392254 -131.4591923 322.25751329 -135 322 C-135.66 322.33 -136.32 322.66 -137 323 C-137 322.34 -137 321.68 -137 321 C-141.10223585 319.98459888 -141.10223585 319.98459888 -145 321 C-145 320.34 -145 319.68 -145 319 C-146.56159059 318.51787786 -148.12431928 318.03944127 -149.6875 317.5625 C-150.55761719 317.29566406 -151.42773438 317.02882813 -152.32421875 316.75390625 C-154.87025921 316.03655471 -157.4003423 315.482459 -160 315 C-160 314.34 -160 313.68 -160 313 C-160.53625 312.87625 -161.0725 312.7525 -161.625 312.625 C-164.4638286 311.87793984 -167.22223202 310.94696636 -170 310 C-170 309.34 -170 308.68 -170 308 C-171.98 307.67 -173.96 307.34 -176 307 C-179.17776552 311.56381218 -182.15546281 316.16258209 -184.77734375 321.0703125 C-188.05409102 327.13300551 -191.48152225 333.10059416 -194.9375 339.0625 C-195.92374088 340.76829041 -196.90998 342.47408184 -197.89611816 344.17993164 C-198.91482673 345.9416708 -199.93412019 347.7030702 -200.95361328 349.46435547 C-206.09434958 358.34564537 -211.22730054 367.2313637 -216.34326172 376.12695312 C-217.86824537 378.77151658 -219.40348133 381.40982516 -220.94140625 384.046875 C-221.77385252 385.4893439 -222.60591894 386.93203213 -223.4375 388.375 C-223.9951001 389.31980225 -223.9951001 389.31980225 -224.56396484 390.28369141 C-226.4455623 393.57487046 -227 395.08337117 -227 399 C-227.99 399 -228.98 399 -230 399 C-230.33 399.66 -230.66 400.32 -231 401 C-231 400.01 -231 399.02 -231 398 C-230.34 398 -229.68 398 -229 398 C-229.639375 397.360625 -230.27875 396.72125 -230.9375 396.0625 C-231.39253906 395.60617187 -231.84757812 395.14984375 -232.31640625 394.6796875 C-233.56917776 393.42982266 -234.82795574 392.18597249 -236.08984375 390.9453125 C-240.95720474 386.13619344 -245.6187244 381.25581593 -250 376 C-250.42651855 375.49259277 -250.85303711 374.98518555 -251.29248047 374.46240234 C-283.29143788 336.20206294 -302.2757085 289.06472973 -302.1875 239 C-302.18656342 238.3130304 -302.18562683 237.62606079 -302.18466187 236.91827393 C-302.02933783 184.28102332 -281.08439834 137.65333367 -244.42578125 100.3828125 C-219.62283957 76.60541358 -186.64271185 64.51485328 -152.5625 64.625 C-151.51594238 64.62681274 -151.51594238 64.62681274 -150.44824219 64.62866211 C-126.26613367 64.7415854 -101.99042607 70.02040668 -80.5859375 81.6328125 C-76.80786408 83.63028334 -72.86355763 85.16187401 -68.90625 86.765625 C-65.1591833 88.35712107 -61.56270464 90.18789805 -57.9609375 92.08203125 C-56.05896912 93.14132386 -56.05896912 93.14132386 -54 93 C-53.16082031 91.46859375 -53.16082031 91.46859375 -52.3046875 89.90625 C-46.87902034 80.05042976 -41.28919703 70.30168477 -35.59936523 60.59619141 C-31.33424512 53.31182574 -27.12903275 45.99501573 -22.95321655 38.65927124 C-17.55298491 29.1728865 -12.11171359 19.71280717 -6.5625 10.3125 C-6.01263428 9.37970215 -5.46276855 8.4469043 -4.89624023 7.48583984 C-1.12795141 1.12795141 -1.12795141 1.12795141 0 0 Z " fill="#077E40" transform="translate(454,142)"/>
<path d="M0 0 C24.78823562 20.48483028 42.14884433 48.62510787 45.74707031 81.07397461 C45.91215708 85.11639926 45.93758191 89.15349585 45.93457031 93.19897461 C45.93376465 94.3153833 45.93295898 95.43179199 45.93212891 96.58203125 C45.87472473 104.29839097 45.35725744 111.51504061 43.74707031 119.07397461 C43.60269531 119.94538086 43.45832031 120.81678711 43.30957031 121.71459961 C42.24647637 127.90332507 40.29476074 133.34925355 37.74707031 139.07397461 C37.48152344 139.69191895 37.21597656 140.30986328 36.94238281 140.9465332 C30.45174786 155.98484615 22.05364455 168.20852028 10.74707031 180.07397461 C10.23402344 180.66178711 9.72097656 181.24959961 9.19238281 181.85522461 C-0.60581225 192.61800882 -14.26839615 199.62709593 -27.45214844 205.29418945 C-28.94003014 205.93848096 -30.4115098 206.62050719 -31.87792969 207.31225586 C-54.07693147 217.29409867 -85.31623976 217.68335717 -108.25292969 210.07397461 C-108.94757324 209.8490332 -109.6422168 209.6240918 -110.35791016 209.39233398 C-129.6531638 203.00311887 -145.86422009 192.26002632 -160.25292969 178.07397461 C-161.04441406 177.29538086 -161.83589844 176.51678711 -162.65136719 175.71459961 C-185.07567146 152.26743233 -193.93489452 119.90723125 -193.53027344 88.17944336 C-192.59549538 58.65254829 -178.72771511 30.91858374 -158.25292969 10.07397461 C-157.39570313 9.19225586 -156.53847656 8.31053711 -155.65527344 7.40209961 C-114.1842313 -32.98510512 -45.20042166 -35.76134421 0 0 Z " fill="#86E68C" transform="translate(413.2529296875,244.926025390625)"/>
<path d="M0 0 C3.64325789 1.2144193 4.04030135 2.55516907 5.70043945 5.86206055 C6.02616943 6.52633057 6.35189941 7.19060059 6.6875 7.875 C21.18749094 36.09634674 46.36863045 55.99008587 76.31201172 65.88647461 C87.77933927 69.3488393 98.78562744 70.5479326 110.75 70.4375 C111.79083237 70.43343643 111.79083237 70.43343643 112.85269165 70.42929077 C124.26060888 70.36202074 135.06256071 69.40357895 146 66 C147.10988281 65.66097656 148.21976563 65.32195312 149.36328125 64.97265625 C172.46167578 56.88965642 193.35452557 42.55395085 207.66015625 22.58203125 C208.10230469 22.05996094 208.54445313 21.53789062 209 21 C209.66 21 210.32 21 211 21 C204.44486347 39.88825423 181.63439145 55.44432302 164.54516602 63.81958008 C154.75566686 68.47414084 145.39307278 72.06813038 134.625 73.625 C133.79572998 73.74979736 132.96645996 73.87459473 132.11206055 74.00317383 C120.9889971 75.64093217 110.16160923 76.8602682 99 75 C98.67 75.66 98.34 76.32 98 77 C96.88625 76.814375 95.7725 76.62875 94.625 76.4375 C91.17431139 75.68319343 91.17431139 75.68319343 89 77 C89 76.34 89 75.68 89 75 C84.89776415 73.98459888 84.89776415 73.98459888 81 75 C81 74.34 81 73.68 81 73 C79.43840941 72.51787786 77.87568072 72.03944127 76.3125 71.5625 C75.44238281 71.29566406 74.57226562 71.02882813 73.67578125 70.75390625 C71.12974079 70.03655471 68.5996577 69.482459 66 69 C66 68.34 66 67.68 66 67 C65.46375 66.87625 64.9275 66.7525 64.375 66.625 C61.5361714 65.87793984 58.77776798 64.94696636 56 64 C56 63.34 56 62.68 56 62 C53.03 61.505 53.03 61.505 50 61 C46.19373672 66.58791843 42.62892911 72.24406875 39.296875 78.12890625 C38.86890625 78.74636719 38.4409375 79.36382812 38 80 C37.34 80 36.68 80 36 80 C36.0721875 79.18015625 36.144375 78.3603125 36.21875 77.515625 C36.35796875 75.89914062 36.35796875 75.89914062 36.5 74.25 C36.5928125 73.18265625 36.685625 72.1153125 36.78125 71.015625 C36.95052283 68.6820782 37 66.33967818 37 64 C37.30404678 62.32774271 37.63128912 60.65919896 38 59 C37.01 58.67 36.02 58.34 35 58 C34.67 58.99 34.34 59.98 34 61 C32.67696283 61.3721042 31.34262065 61.70630173 30 62 C29.67 62.66 29.34 63.32 29 64 C27 61 27 61 27.375 58.3125 C27.58125 57.549375 27.7875 56.78625 28 56 C27.34 56 26.68 56 26 56 C25.67 55.01 25.34 54.02 25 53 C25.66 52.01 26.32 51.02 27 50 C26.34 50 25.68 50 25 50 C23.75 43.375 23.75 43.375 26 40 C24.35 39.67 22.7 39.34 21 39 C20.87625 38.13375 20.87625 38.13375 20.75 37.25 C19.7973369 34.39201069 18.13946926 33.07045412 16 31 C16 30.34 16 29.68 16 29 C15.34 29 14.68 29 14 29 C13.67 29.66 13.34 30.32 13 31 C12.73058594 30.27296875 12.46117187 29.5459375 12.18359375 28.796875 C11.02520716 26.05956543 9.6659955 23.74704643 8.0625 21.25 C5.24355415 16.6340619 3.44629137 12.19132398 2 7 C1.79503906 6.30132812 1.59007812 5.60265625 1.37890625 4.8828125 C0.90610479 3.25898405 0.4508663 1.6300551 0 0 Z M37 54 C37.33 54.99 37.66 55.98 38 57 C38 56.01 38 55.02 38 54 C37.67 54 37.34 54 37 54 Z " fill="#075A2C" transform="translate(228,388)"/>
<path d="M0 0 C2.82631003 0.29750632 4.56696127 0.65655549 6.8125 2.4375 C8 4 8 4 8 6 C7.34 6 6.68 6 6 6 C5.91363281 6.7115625 5.82726562 7.423125 5.73828125 8.15625 C4.84265163 11.60608263 3.33410824 13.66440618 1.1875 16.5 C0.50042969 17.4178125 -0.18664062 18.335625 -0.89453125 19.28125 C-1.58933594 20.1784375 -2.28414062 21.075625 -3 22 C-4.05767578 23.40765625 -4.05767578 23.40765625 -5.13671875 24.84375 C-6.05904297 25.91109375 -6.05904297 25.91109375 -7 27 C-7.66 27 -8.32 27 -9 27 C-9.33 27.99 -9.66 28.98 -10 30 C-16.66291704 36.33789669 -24.85957471 42.70366443 -33 47 C-33.99 46.67 -34.98 46.34 -36 46 C-33.10340704 41.03265122 -30.19617202 36.98636342 -26 33 C-25.09309012 31.90491285 -24.19724743 30.80056935 -23.3125 29.6875 C-22.1678125 28.3571875 -22.1678125 28.3571875 -21 27 C-20.34 27 -19.68 27 -19 27 C-18.566875 25.88625 -18.566875 25.88625 -18.125 24.75 C-17.568125 23.38875 -17.568125 23.38875 -17 22 C-16.731875 21.319375 -16.46375 20.63875 -16.1875 19.9375 C-15 18 -15 18 -12.8125 16.3125 C-7.7649637 12.16230349 -3.82553341 6.88330245 -1 1 C-0.67 0.67 -0.34 0.34 0 0 Z " fill="#05381C" transform="translate(217,534)"/>
<path d="M0 0 C0.66 0 1.32 0 2 0 C-4.55513653 18.88825423 -27.36560855 34.44432302 -44.45483398 42.81958008 C-54.50755939 47.59929562 -64.00415864 51.11754153 -75.0625 52.6875 C-75.92810547 52.81705078 -76.79371094 52.94660156 -77.68554688 53.08007812 C-79.78930608 53.39389856 -81.89451257 53.69799214 -84 54 C-84 53.01 -84 52.02 -84 51 C-83.34 51 -82.68 51 -82 51 C-82 50.34 -82 49.68 -82 49 C-80.16888672 48.65388672 -80.16888672 48.65388672 -78.30078125 48.30078125 C-47.72467292 42.33395097 -19.75733882 27.29447547 -1.33984375 1.58203125 C-0.89769531 1.05996094 -0.45554687 0.53789062 0 0 Z " fill="#085828" transform="translate(437,409)"/>
<path d="M0 0 C4.15151338 1.44202476 7.29978445 3.5010438 10.8125 6.125 C11.78832031 6.84945313 12.76414062 7.57390625 13.76953125 8.3203125 C14.50558594 8.87460937 15.24164063 9.42890625 16 10 C13.69695366 14.05663492 11.3850458 18.10796074 9.06054688 22.15234375 C8.10436001 23.8181868 7.15341884 25.48703821 6.203125 27.15625 C5.68234375 28.0534375 5.1615625 28.950625 4.625 29.875 C3.93277344 31.07769531 3.93277344 31.07769531 3.2265625 32.3046875 C2.82179688 32.86414063 2.41703125 33.42359375 2 34 C1.34 34 0.68 34 0 34 C0.10828125 32.77023437 0.10828125 32.77023437 0.21875 31.515625 C0.3115625 30.43796875 0.404375 29.3603125 0.5 28.25 C0.5928125 27.18265625 0.685625 26.1153125 0.78125 25.015625 C0.95052283 22.6820782 1 20.33967818 1 18 C1.14899918 16.56056147 1.31642699 15.12293895 1.5 13.6875 C1.96237584 9.75404918 2.08420149 5.95746991 2 2 C1.34 2 0.68 2 0 2 C0 1.34 0 0.68 0 0 Z " fill="#055027" transform="translate(264,434)"/>
<path d="M0 0 C0.495 0.2578125 0.99 0.515625 1.5 0.78125 C4.95274792 2.46446461 8.47549764 3.97399264 12 5.5 C20.53608247 9.19587629 20.53608247 9.19587629 24 11 C23.67 11.33 23.34 11.66 23 12 C29.93 14.64 36.86 17.28 44 20 C43.34 20.66 42.68 21.32 42 22 C41.01 22 40.02 22 39 22 C38.505 21.01 38.505 21.01 38 20 C33.90607154 18.91240913 33.90607154 18.91240913 30 20 C30 19.34 30 18.68 30 18 C28.43840941 17.51787786 26.87568072 17.03944127 25.3125 16.5625 C24.44238281 16.29566406 23.57226562 16.02882813 22.67578125 15.75390625 C20.12974079 15.03655471 17.5996577 14.482459 15 14 C15 13.34 15 12.68 15 12 C14.46375 11.87625 13.9275 11.7525 13.375 11.625 C10.5361714 10.87793984 7.77776798 9.94696636 5 9 C5 8.34 5 7.68 5 7 C3.02 6.34 1.04 5.68 -1 5 C-0.67 3.35 -0.34 1.7 0 0 Z " fill="#1F7E3B" transform="translate(279,443)"/>
<path d="M0 0 C3.64424137 1.21474712 4.04062334 2.55748081 5.70263672 5.86425781 C6.0276416 6.52780273 6.35264648 7.19134766 6.6875 7.875 C10.21318595 14.80051369 14.2686213 20.82477334 19 27 C19.66 27.99 20.32 28.98 21 30 C19.02 30.99 19.02 30.99 17 32 C16.67 31.01 16.34 30.02 16 29 C15.34 29 14.68 29 14 29 C13.67 29.66 13.34 30.32 13 31 C12.73058594 30.27296875 12.46117187 29.5459375 12.18359375 28.796875 C11.02520716 26.05956543 9.6659955 23.74704643 8.0625 21.25 C5.24355415 16.6340619 3.44629137 12.19132398 2 7 C1.79503906 6.30132812 1.59007812 5.60265625 1.37890625 4.8828125 C0.90610479 3.25898405 0.4508663 1.6300551 0 0 Z " fill="#0B6837" transform="translate(228,388)"/>
<path d="M0 0 C4.95896677 2.31418449 7.67539855 4.3028544 11 8.5625 C12.94393448 11.17306437 12.94393448 11.17306437 16 13 C15.01 13.33 14.02 13.66 13 14 C12.67 14.66 12.34 15.32 12 16 C11.67 15.01 11.34 14.02 11 13 C9.02 13.99 9.02 13.99 7 15 C6.60167969 14.278125 6.20335937 13.55625 5.79296875 12.8125 C5.26316406 11.884375 4.73335938 10.95625 4.1875 10 C3.66542969 9.071875 3.14335937 8.14375 2.60546875 7.1875 C2.07566406 6.465625 1.54585938 5.74375 1 5 C0.01 5 -0.98 5 -2 5 C-1.34 3.35 -0.68 1.7 0 0 Z M7 10 C7.66 10.66 8.32 11.32 9 12 C9 11.34 9 10.68 9 10 C8.34 10 7.68 10 7 10 Z " fill="#209041" transform="translate(275,451)"/>
<path d="M0 0 C4.12579929 1.33010843 8.12783546 2.82343994 12.125 4.5 C13.13820313 4.9228125 14.15140625 5.345625 15.1953125 5.78125 C17.50834959 6.78635804 19.76041342 7.84270167 22 9 C21.67 9.33 21.34 9.66 21 10 C24.465 11.485 24.465 11.485 28 13 C24.52873387 14.15708871 23.99701917 13.86129063 20.76171875 12.48828125 C19.94123047 12.14216797 19.12074219 11.79605469 18.27539062 11.43945312 C17.42138672 11.06755859 16.56738281 10.69566406 15.6875 10.3125 C14.42389648 9.78366211 14.42389648 9.78366211 13.13476562 9.24414062 C8.41369829 7.22504459 4.06957849 5.15342542 0 2 C0 1.34 0 0.68 0 0 Z " fill="#197336" transform="translate(281,445)"/>
<path d="M0 0 C0.598125 0.33 1.19625 0.66 1.8125 1 C4.05386471 2.20787988 4.05386471 2.20787988 7 2 C9.15305661 3.0765283 10.30809999 4.30809999 12 6 C12.99 6.66 13.98 7.32 15 8 C14.34 8.66 13.68 9.32 13 10 C12.113125 9.67 11.22625 9.34 10.3125 9 C7.1567339 7.84598677 7.1567339 7.84598677 4.375 8.125 C2 8 2 8 -0.3125 6 C-0.869375 5.34 -1.42625 4.68 -2 4 C-1.34 2.68 -0.68 1.36 0 0 Z " fill="#1F9140" transform="translate(297,468)"/>
<path d="M0 0 C0.66 0.99 1.32 1.98 2 3 C1.01 3.33 0.02 3.66 -1 4 C-1.33 4.66 -1.66 5.32 -2 6 C-2.66 5.67 -3.32 5.34 -4 5 C-4 5.66 -4 6.32 -4 7 C-4.66 7 -5.32 7 -6 7 C-6.33 7.66 -6.66 8.32 -7 9 C-8.33076989 9.34342449 -9.66431979 9.67619874 -11 10 C-11.66 10.66 -12.32 11.32 -13 12 C-13.99 11.01 -14.98 10.02 -16 9 C-15.67 8.34 -15.34 7.68 -15 7 C-14.071875 6.87625 -13.14375 6.7525 -12.1875 6.625 C-8.42663977 5.88757643 -7.56240293 4.72771925 -5 2 C-2.25 0.75 -2.25 0.75 0 0 Z " fill="#03622C" transform="translate(409,453)"/>
<path d="M0 0 C4.73333862 0.28686901 7.04880858 2.51652573 10.3515625 5.625 C12.0653207 7.22445871 12.0653207 7.22445871 15 8 C15.99 9.485 15.99 9.485 17 11 C16.67 11.99 16.34 12.98 16 14 C15.443125 13.38125 14.88625 12.7625 14.3125 12.125 C12.14441272 9.8695627 12.14441272 9.8695627 9.375 9 C7 8 7 8 6 5.9375 C5.67 5.298125 5.34 4.65875 5 4 C2.44480079 3.18828772 2.44480079 3.18828772 0 3 C0 2.01 0 1.02 0 0 Z " fill="#229844" transform="translate(282,473)"/>
<path d="M0 0 C1.33333333 2.66666667 2.66666667 5.33333333 4 8 C1.525 9.485 1.525 9.485 -1 11 C-1 10.01 -1 9.02 -1 8 C-1.20625 7.360625 -1.4125 6.72125 -1.625 6.0625 C-2.10649135 3.41429756 -1.36846295 2.25393897 0 0 Z " fill="#076937" transform="translate(242,419)"/>
<path d="M0 0 C0.33 0.99 0.66 1.98 1 3 C1.99 3.33 2.98 3.66 4 4 C4.6875 6.0625 4.6875 6.0625 5 8 C4.01 8.495 4.01 8.495 3 9 C2.01 8.01 1.02 7.02 0 6 C-1.98 6.99 -1.98 6.99 -4 8 C-2.87548273 5.0280615 -1.77706209 2.66559313 0 0 Z " fill="#239543" transform="translate(270,460)"/>
<path d="M0 0 C1.44096586 0.42594588 2.87768712 0.86626633 4.3125 1.3125 C5.51326172 1.67794922 5.51326172 1.67794922 6.73828125 2.05078125 C9 3 9 3 12 6 C7.05 5.01 2.1 4.02 -3 3 C-2.01 2.67 -1.02 2.34 0 2 C0 1.34 0 0.68 0 0 Z " fill="#138549" transform="translate(364,220)"/>
<path d="M0 0 C0.99 0.33 1.98 0.66 3 1 C3 1.66 3 2.32 3 3 C3.66 3.33 4.32 3.66 5 4 C2.6875 5.125 2.6875 5.125 0 6 C-0.99 5.34 -1.98 4.68 -3 4 C-3.33 4.66 -3.66 5.32 -4 6 C-3.6875 4.125 -3.6875 4.125 -3 2 C-2.01 1.34 -1.02 0.68 0 0 Z " fill="#1E9641" transform="translate(329,487)"/>
<path d="M0 0 C2.475 0.99 2.475 0.99 5 2 C2.64722731 4.72426311 0.37503669 5.8141763 -3 7 C-3 3.48283697 -2.17554415 2.62878252 0 0 Z " fill="#084524" transform="translate(185,574)"/>
<path d="M0 0 C0.99 0.99 1.98 1.98 3 3 C2.38125 3.28875 1.7625 3.5775 1.125 3.875 C-1.13325765 4.93720042 -1.13325765 4.93720042 -3 7 C-3.99 6.01 -4.98 5.02 -6 4 C-5.67 3.34 -5.34 2.68 -5 2 C-3.67696283 1.6278958 -2.34262065 1.29369827 -1 1 C-0.67 0.67 -0.34 0.34 0 0 Z " fill="#03622C" transform="translate(391,462)"/>
<path d="M0 0 C-0.35049575 3.24208567 -0.56221181 4.61527704 -3.0625 6.8125 C-3.701875 7.204375 -4.34125 7.59625 -5 8 C-6 5 -6 5 -5.1875 2.875 C-3.68508471 0.50276534 -2.80531948 0 0 0 Z " fill="#94E699" transform="translate(425,257)"/>
<path d="M0 0 C2.125 0.9375 2.125 0.9375 4 2 C4 2.99 4 3.98 4 5 C3.01 5.495 3.01 5.495 2 6 C1.34 5.34 0.68 4.68 0 4 C-0.99 4 -1.98 4 -3 4 C-2.67 3.01 -2.34 2.02 -2 1 C-1.34 0.67 -0.68 0.34 0 0 Z " fill="#209141" transform="translate(291,465)"/>
<path d="M0 0 C0.99 0.33 1.98 0.66 3 1 C3 3.64 3 6.28 3 9 C2.34 9 1.68 9 1 9 C-1.09230769 4.56923077 -1.09230769 4.56923077 -0.625 1.6875 C-0.41875 1.130625 -0.2125 0.57375 0 0 Z " fill="#066A34" transform="translate(243,445)"/>
<path d="M0 0 C0.66 0 1.32 0 2 0 C2.66 0.66 3.32 1.32 4 2 C4.99 2.66 5.98 3.32 7 4 C6.67 4.66 6.34 5.32 6 6 C5.34 6 4.68 6 4 6 C3.67 6.66 3.34 7.32 3 8 C0 2.25 0 2.25 0 0 Z " fill="#259946" transform="translate(276,467)"/>
<path d="M0 0 C2 1 2 1 2 1 Z M-2 1 C-1.34 1 -0.68 1 0 1 C0.66 3.31 1.32 5.62 2 8 C1.01 8 0.02 8 -1 8 C-1.68707555 5.50935112 -2 3.62113708 -2 1 Z " fill="#076935" transform="translate(244,432)"/>
<path d="M0 0 C0.99 0.66 1.98 1.32 3 2 C2.1875 3.9375 2.1875 3.9375 1 6 C0.01 6.33 -0.98 6.66 -2 7 C-2 3.89448334 -1.4606285 2.64738916 0 0 Z " fill="#056A33" transform="translate(235,482)"/>
<path d="M0 0 C0.66 0 1.32 0 2 0 C0.87548273 2.9719385 -0.22293791 5.33440687 -2 8 C-2.66 7.67 -3.32 7.34 -4 7 C-2.68 4.69 -1.36 2.38 0 0 Z " fill="#0B602D" transform="translate(443,399)"/>
</svg>
